<svg width="187" height="50" viewBox="0 0 187 50" fill="none" xmlns="http://www.w3.org/2000/svg">
<path fill-rule="evenodd" clip-rule="evenodd" d="M2 0C0.895386 0 0 0.895432 0 2V48C0 49.1046 0.895386 50 2 50H185C186.105 50 187 49.1046 187 48V2C187 0.89543 186.105 0 185 0H2ZM24.3369 17.1934L18.1025 17.2959V19.0801L19.5791 19.6953L22.9731 32H25.875L28.2949 24.0225L28.7974 22.0229L31.5454 32H34.5293L38.1182 19.7158L39.6255 19.0801V17.1934L33.6475 17.2959V19.0801L35.2163 19.7158L33.2065 27.2524L30.3867 17.1934L27.5566 17.3677L24.6138 27.2729L22.8091 19.7158L24.3369 19.0801V17.1934ZM46.7109 31.0977C47.0732 30.8174 47.2544 30.6636 47.2544 30.6362L47.6338 32L51.8379 31.8564V30.1748L50.2588 29.7954V24.6069C50.2588 23.5884 50.1118 22.7783 49.8179 22.1768C49.5239 21.5684 49.0591 21.1309 48.4233 20.8643C47.7876 20.5908 46.9297 20.4541 45.8496 20.4541C45.248 20.4541 44.6089 20.5156 43.9321 20.6387C43.2622 20.7617 42.6846 20.8916 42.1992 21.0283C41.7207 21.165 41.4199 21.2539 41.2969 21.2949L41.4404 24.4019H43.3271L43.645 23.0791C43.686 23.0654 43.7852 23.0347 43.9424 22.9868C44.1064 22.9321 44.3252 22.8809 44.5986 22.833C44.8721 22.7852 45.1694 22.7612 45.4907 22.7612C46.5708 22.7544 47.1108 23.2637 47.1108 24.2891V25.4478H45.6343C43.9868 25.4478 42.7324 25.7246 41.8711 26.2783C41.0098 26.832 40.5791 27.7104 40.5791 28.9136C40.5791 29.9663 40.8662 30.7798 41.4404 31.354C42.0215 31.9214 42.8247 32.2051 43.8501 32.2051C44.3833 32.2051 44.9028 32.0923 45.4087 31.8667C45.9146 31.6343 46.3486 31.3779 46.7109 31.0977ZM43.9424 29.5391C43.7305 29.3203 43.6245 29.0059 43.6245 28.5957C43.6245 28.124 43.8022 27.7788 44.1577 27.5601C44.5132 27.3413 45.0977 27.2319 45.9111 27.2319H47.1108V28.6367C47.0562 28.6982 46.916 28.8281 46.6904 29.0264C46.4648 29.2178 46.188 29.4058 45.8599 29.5903C45.5317 29.7681 45.2002 29.8569 44.8652 29.8569C44.4688 29.8569 44.1611 29.751 43.9424 29.5391ZM53.6836 32.9434C53.3555 33.3193 53.1914 33.7739 53.1914 34.3071C53.1914 35.4146 53.6528 36.1973 54.5757 36.6553C55.4985 37.1201 56.8418 37.3525 58.6055 37.3525C60.5537 37.3525 62.02 36.9868 63.0044 36.2554C63.9956 35.5308 64.4912 34.5669 64.4912 33.3638C64.4912 32.3179 64.1255 31.5146 63.394 30.9541C62.6694 30.3936 61.6338 30.1133 60.2871 30.1133H57.1802L57.2622 28.6982C57.3032 28.6982 57.4263 28.7188 57.6313 28.7598C57.8364 28.7939 58.0723 28.811 58.3389 28.811C59.877 28.811 61.1006 28.459 62.0098 27.7549C62.9189 27.0439 63.3735 25.9604 63.3735 24.5044C63.3735 24.0396 63.3154 23.6602 63.1992 23.3662C63.0898 23.0723 63.0283 22.8979 63.0146 22.8433L64.7373 22.5459V20.8745L61.1279 20.9565C60.4102 20.6216 59.583 20.4541 58.6465 20.4541C57.1494 20.4541 55.936 20.8232 55.0063 21.5615C54.0767 22.2998 53.6118 23.3628 53.6118 24.7505C53.6118 25.6323 53.7793 26.333 54.1143 26.8525C54.4561 27.3721 54.8286 27.7651 55.2319 28.0317C54.5005 29.1802 54.1348 29.9697 54.1348 30.4004C54.1348 30.7559 54.2271 31.0396 54.4116 31.2515C54.603 31.4565 54.8149 31.6069 55.0474 31.7026C55.1832 31.7546 55.2795 31.7867 55.3359 31.7989C55.2478 31.8283 55.0627 31.9158 54.7808 32.0615C54.3774 32.2734 54.0117 32.5674 53.6836 32.9434ZM57.1904 23.1099C57.4775 22.7817 57.9287 22.6177 58.5439 22.6177C59.1182 22.6177 59.542 22.7817 59.8154 23.1099C60.0889 23.438 60.2256 23.937 60.2256 24.6069C60.2256 25.3384 60.0889 25.8716 59.8154 26.2065C59.542 26.5415 59.084 26.709 58.4414 26.709C57.8672 26.709 57.4434 26.5244 57.1699 26.1553C56.8965 25.7793 56.7598 25.2632 56.7598 24.6069C56.7598 23.937 56.9033 23.438 57.1904 23.1099ZM56.9136 32.6152C57.0776 32.5127 57.187 32.4478 57.2417 32.4204H59.4463C60.1914 32.4204 60.728 32.5059 61.0562 32.6768C61.3843 32.8545 61.5483 33.1689 61.5483 33.6201C61.5483 34.1191 61.3364 34.4814 60.9126 34.707C60.4956 34.9326 59.812 35.0454 58.8618 35.0454C57.939 35.0454 57.269 34.96 56.8521 34.7891C56.4419 34.625 56.2368 34.29 56.2368 33.7842C56.2368 33.5176 56.3086 33.2817 56.4521 33.0767C56.6025 32.8784 56.7563 32.7246 56.9136 32.6152ZM71.1562 21.6333C70.7188 21.9204 70.5 22.0776 70.5 22.105L70.3564 20.6592L65.9062 20.7617V22.4434L67.5879 22.9663V29.7954L65.9062 30.3184V32H71.8843V30.3184L70.7358 29.7954V24.3096C70.7358 24.2822 70.8452 24.166 71.064 23.9609C71.2896 23.749 71.5664 23.5576 71.8945 23.3867C72.2295 23.209 72.5918 23.1201 72.9814 23.1201C73.4121 23.1201 73.7573 23.2773 74.0171 23.5918C74.2769 23.9062 74.4067 24.3096 74.4067 24.8018V29.7954L73.248 30.3184V32H79.0312V30.3184L77.5547 29.7954V24.2275C77.5547 23.0654 77.2744 22.1528 76.7139 21.4897C76.1533 20.8267 75.3706 20.4951 74.3657 20.4951C73.8052 20.4951 73.2412 20.6147 72.6738 20.854C72.1064 21.0864 71.6006 21.3462 71.1562 21.6333ZM84.312 28.9956C83.8608 28.5239 83.6079 27.8677 83.5532 27.0269L90.5259 26.9551C90.5396 26.873 90.5635 26.6748 90.5977 26.3604C90.6318 26.0459 90.6489 25.7212 90.6489 25.3862C90.6489 23.8618 90.2388 22.6587 89.4185 21.7769C88.5981 20.895 87.4189 20.4541 85.8809 20.4541C84.7256 20.4541 83.7275 20.707 82.8867 21.2129C82.0459 21.7119 81.3999 22.4229 80.9487 23.3457C80.5044 24.2617 80.2822 25.3281 80.2822 26.5449C80.2822 28.3496 80.7471 29.7441 81.6768 30.7285C82.6064 31.7129 83.96 32.2051 85.7373 32.2051C86.5371 32.2051 87.2891 32.0786 87.9932 31.8257C88.7041 31.5659 89.3022 31.2788 89.7876 30.9644C90.2798 30.6431 90.5259 30.4688 90.5259 30.4414L89.6235 28.6982C89.5278 28.7598 89.3057 28.8691 88.957 29.0264C88.6152 29.1768 88.1812 29.3271 87.6548 29.4775C87.1353 29.6211 86.6157 29.6929 86.0962 29.6929C85.3647 29.6929 84.77 29.4604 84.312 28.9956ZM84.271 23.5508C84.6333 23.1611 85.1016 22.9663 85.6758 22.9663C86.2637 22.9663 86.6978 23.1611 86.978 23.5508C87.2583 23.9336 87.3984 24.4395 87.3984 25.0684H83.5942C83.6831 24.4395 83.9087 23.9336 84.271 23.5508ZM97.2217 21.623C96.8936 21.917 96.7295 22.0776 96.7295 22.105L96.5449 20.6592L92.1357 20.7617V22.4434L93.8174 22.9663V29.7954L92.1357 30.3184V32H99.0674V30.3184L96.9653 29.7954V24.248C96.9653 24.2344 97.0815 24.125 97.314 23.9199C97.5532 23.708 97.8403 23.5166 98.1753 23.3457C98.5171 23.168 98.8691 23.0791 99.2314 23.0791L99.5493 24.8633H101.436L101.6 20.8232C101.559 20.8096 101.453 20.772 101.282 20.7104C101.118 20.6489 100.889 20.5908 100.595 20.5361C100.301 20.4814 99.9868 20.4541 99.6519 20.4541C99.228 20.4541 98.7974 20.5771 98.3599 20.8232C97.9292 21.0625 97.5498 21.3291 97.2217 21.623ZM108.962 29.5801L107.394 30.2158V32H113.484V30.2158L111.844 29.5801V22.4844L117.473 32H120.98V19.7158L122.549 19.0801V17.1934L116.571 17.2959V19.0801L118.099 19.7158V26.8936L112.428 17.1934L107.394 17.2959V19.0801L108.962 19.7158V29.5801ZM130.157 31.0977C130.52 30.8174 130.701 30.6636 130.701 30.6362L131.08 32L135.284 31.8564V30.1748L133.705 29.7954V24.6069C133.705 23.5884 133.558 22.7783 133.264 22.1768C132.97 21.5684 132.505 21.1309 131.87 20.8643C131.234 20.5908 130.376 20.4541 129.296 20.4541C128.694 20.4541 128.055 20.5156 127.378 20.6387C126.708 20.7617 126.131 20.8916 125.646 21.0283C125.167 21.165 124.866 21.2539 124.743 21.2949L124.887 24.4019H126.773L127.091 23.0791C127.132 23.0654 127.231 23.0347 127.389 22.9868C127.553 22.9321 127.771 22.8809 128.045 22.833C128.318 22.7852 128.616 22.7612 128.937 22.7612C130.017 22.7544 130.557 23.2637 130.557 24.2891V25.4478H129.081C127.433 25.4478 126.179 25.7246 125.317 26.2783C124.456 26.832 124.025 27.7104 124.025 28.9136C124.025 29.9663 124.312 30.7798 124.887 31.354C125.468 31.9214 126.271 32.2051 127.296 32.2051C127.83 32.2051 128.349 32.0923 128.855 31.8667C129.361 31.6343 129.795 31.3779 130.157 31.0977ZM127.389 29.5391C127.177 29.3203 127.071 29.0059 127.071 28.5957C127.071 28.124 127.249 27.7788 127.604 27.5601C127.959 27.3413 128.544 27.2319 129.357 27.2319H130.557V28.6367C130.502 28.6982 130.362 28.8281 130.137 29.0264C129.911 29.2178 129.634 29.4058 129.306 29.5903C128.978 29.7681 128.646 29.8569 128.312 29.8569C127.915 29.8569 127.607 29.751 127.389 29.5391ZM141.621 21.623C141.293 21.917 141.129 22.0776 141.129 22.105L140.944 20.6592L136.535 20.7617V22.4434L138.217 22.9663V29.7954L136.535 30.3184V32H143.467V30.3184L141.365 29.7954V24.248C141.365 24.2344 141.481 24.125 141.713 23.9199C141.953 23.708 142.24 23.5166 142.575 23.3457C142.917 23.168 143.269 23.0791 143.631 23.0791L143.949 24.8633H145.835L146 20.8232C145.958 20.8096 145.853 20.772 145.682 20.7104C145.518 20.6489 145.289 20.5908 144.995 20.5361C144.701 20.4814 144.386 20.4541 144.051 20.4541C143.627 20.4541 143.197 20.5771 142.759 20.8232C142.329 21.0625 141.949 21.3291 141.621 21.623ZM153.188 31.7847C153.707 31.4976 154.121 31.1968 154.428 30.8823L154.613 32L159.094 31.8564V30.1748L157.412 29.7544V15.7271L152.583 15.8911V17.5728L154.264 17.9932V20.6592C153.642 20.5225 153.116 20.4541 152.685 20.4541C150.778 20.4541 149.346 20.9805 148.389 22.0332C147.432 23.0791 146.953 24.6035 146.953 26.6064C146.953 28.3838 147.309 29.7612 148.02 30.7388C148.737 31.7163 149.817 32.2051 151.26 32.2051C152.025 32.2051 152.668 32.0649 153.188 31.7847ZM152.624 22.9663C153.266 22.9663 153.813 23.0723 154.264 23.2842V28.4932C154.264 28.5205 154.175 28.6401 153.998 28.8521C153.82 29.064 153.577 29.2588 153.27 29.4365C152.962 29.6074 152.613 29.6929 152.224 29.6929C151.526 29.6929 151.014 29.4194 150.686 28.8726C150.364 28.3257 150.204 27.5122 150.204 26.4321C150.204 25.3247 150.392 24.4702 150.768 23.8687C151.15 23.2671 151.769 22.9663 152.624 22.9663ZM164.272 28.9956C163.821 28.5239 163.568 27.8677 163.513 27.0269L170.486 26.9551C170.5 26.873 170.523 26.6748 170.558 26.3604C170.592 26.0459 170.609 25.7212 170.609 25.3862C170.609 23.8618 170.199 22.6587 169.378 21.7769C168.558 20.895 167.379 20.4541 165.841 20.4541C164.686 20.4541 163.688 20.707 162.847 21.2129C162.006 21.7119 161.36 22.4229 160.909 23.3457C160.464 24.2617 160.242 25.3281 160.242 26.5449C160.242 28.3496 160.707 29.7441 161.637 30.7285C162.566 31.7129 163.92 32.2051 165.697 32.2051C166.497 32.2051 167.249 32.0786 167.953 31.8257C168.664 31.5659 169.262 31.2788 169.748 30.9644C170.24 30.6431 170.486 30.4688 170.486 30.4414L169.583 28.6982C169.488 28.7598 169.266 28.8691 168.917 29.0264C168.575 29.1768 168.141 29.3271 167.615 29.4775C167.095 29.6211 166.576 29.6929 166.056 29.6929C165.325 29.6929 164.73 29.4604 164.272 28.9956ZM164.231 23.5508C164.593 23.1611 165.062 22.9663 165.636 22.9663C166.224 22.9663 166.658 23.1611 166.938 23.5508C167.218 23.9336 167.358 24.4395 167.358 25.0684H163.554C163.643 24.4395 163.869 23.9336 164.231 23.5508Z" fill="#1D262D"/>
</svg>
