<svg width="32" height="32" viewBox="0 0 32 32" fill="none" xmlns="http://www.w3.org/2000/svg">
<path d="M20.2007 16.5C20.2007 15.3213 19.4885 14.3119 18.4777 13.8869L17.9395 15.1951C18.4449 15.4076 18.7993 15.9123 18.7993 16.5033C18.7993 17.091 18.4449 17.5957 17.9395 17.8115L18.4777 19.1197C19.4885 18.6881 20.2007 17.6787 20.2007 16.5V16.5ZM19.5541 11.2705L19.0159 12.5787C20.5354 13.2195 21.602 14.7336 21.602 16.5C21.602 18.2697 20.5354 19.7805 19.0159 20.4213L19.5541 21.7295C21.579 20.8762 23 18.8574 23 16.5C23 14.1426 21.579 12.1238 19.5541 11.2705ZM9 12.9572V20.0395H11.7993L16.699 25V8L11.7993 12.9572H9Z" fill="black"/>
</svg>
