<svg width="32" height="32" viewBox="0 0 32 32" fill="none" xmlns="http://www.w3.org/2000/svg">
<path d="M16 30C8.26875 30 2 23.7312 2 16C2 8.26875 8.26875 2 16 2C23.7312 2 30 8.26875 30 16C30 23.7312 23.7312 30 16 30ZM20.5031 15.7844L13.6781 10.8188C13.6407 10.7919 13.5966 10.7758 13.5507 10.7724C13.5047 10.7689 13.4587 10.7782 13.4177 10.7992C13.3767 10.8202 13.3422 10.8521 13.3182 10.8913C13.2941 10.9306 13.2813 10.9758 13.2812 11.0219V20.9469C13.2811 20.993 13.2937 21.0384 13.3178 21.0778C13.3418 21.1172 13.3762 21.1492 13.4173 21.1702C13.4584 21.1913 13.5046 21.2005 13.5506 21.1969C13.5966 21.1934 13.6408 21.1771 13.6781 21.15L20.5031 16.1875C20.5354 16.1647 20.5617 16.1345 20.5798 16.0994C20.598 16.0643 20.6075 16.0254 20.6075 15.9859C20.6075 15.9464 20.598 15.9075 20.5798 15.8725C20.5617 15.8374 20.5354 15.8072 20.5031 15.7844V15.7844Z" fill="black"/>
</svg>
